<svg width="340" height="105" viewBox="0 0 340 105" fill="none" xmlns="http://www.w3.org/2000/svg">
<path d="M58.168 51.0747H72.0158L58.631 16H44.7832L58.168 51.0747Z" fill="#A6A6A6"/>
<path d="M85.0734 51.0747H98.9174L85.5326 16H71.6886L85.0734 51.0747Z" fill="#A6A6A6"/>
<path d="M102.016 65.7085L96.6912 81.5921L91.4092 65.7085H87.1853L83.2413 88.48H87.4692L89.9701 74.0976L94.7659 88.48H98.5853L103.424 74.0976L105.866 88.48H110.059L106.24 65.7085H102.016Z" fill="url(#paint0_linear_7:97)"/>
<path d="M120.974 71.2036C118.476 71.2036 116.399 72.0515 114.743 73.7511C113.086 75.4507 112.257 77.582 112.257 80.1528C112.257 82.6613 113.09 84.7499 114.75 86.4145C116.411 88.083 118.566 88.9153 121.207 88.9153C122.91 88.9153 124.381 88.6119 125.618 88.0091C126.854 87.4062 127.92 86.4728 128.807 85.2166L125.244 83.5442C124.108 84.6488 122.751 85.201 121.172 85.201C119.849 85.201 118.764 84.8471 117.912 84.1393C117.061 83.4314 116.536 82.4786 116.341 81.2846H129.919L129.935 80.4795C129.935 77.6909 129.103 75.4507 127.442 73.7511C125.785 72.0515 123.626 71.2036 120.974 71.2036ZM116.532 77.9515C117.006 76.9092 117.524 76.1819 118.084 75.7696C118.974 75.1084 120.005 74.7779 121.184 74.7779C122.269 74.7779 123.222 75.0734 124.046 75.6607C124.867 76.248 125.419 77.0142 125.699 77.9515H116.532V77.9515Z" fill="url(#paint1_linear_7:97)"/>
<path d="M138.083 65.4281H133.855V71.6353H131.688V75.2757H133.855V88.4796H138.083V75.2757H140.591V71.6353H138.083V65.4281Z" fill="url(#paint2_linear_7:97)"/>
<path d="M147.048 71.8538C146.398 72.2855 145.877 72.9234 145.484 73.7595V71.6399H141.859V88.4842H146.056V81.6702L146.04 80.8496C146.04 78.4966 146.266 76.9176 146.713 76.1125C147.161 75.3075 147.713 74.903 148.362 74.903C148.681 74.903 149.09 75.0274 149.584 75.2763L150.898 71.6399C150.299 71.3521 149.728 71.2082 149.179 71.2082C148.409 71.2043 147.697 71.4182 147.048 71.8538Z" fill="url(#paint3_linear_7:97)"/>
<path d="M165.387 72.3943C163.987 71.6009 162.493 71.2003 160.906 71.2003C158.709 71.2003 156.764 71.9626 155.068 73.4911C153.139 75.2451 152.174 77.4386 152.174 80.0716C152.174 82.5296 153.03 84.6143 154.738 86.3333C156.445 88.0524 158.507 88.9119 160.922 88.9119C162.563 88.9119 164.065 88.523 165.426 87.7412C166.787 86.9634 167.865 85.8822 168.654 84.4976C169.444 83.113 169.84 81.6273 169.84 80.0405C169.84 78.4615 169.448 76.9914 168.662 75.6262C167.876 74.2689 166.787 73.1916 165.387 72.3943ZM164.263 83.6031C163.384 84.5209 162.283 84.9799 160.961 84.9799C159.638 84.9799 158.545 84.5248 157.682 83.6186C156.818 82.7086 156.387 81.5223 156.387 80.0561C156.387 78.6326 156.822 77.462 157.698 76.548C158.573 75.634 159.666 75.179 160.976 75.179C162.322 75.179 163.423 75.6301 164.286 76.5324C165.15 77.4347 165.581 78.6093 165.581 80.0561C165.581 81.5029 165.142 82.6852 164.263 83.6031Z" fill="url(#paint4_linear_7:97)"/>
<path d="M176.056 65.1714C175.523 65.4865 175.146 65.9026 174.924 66.416C174.703 66.9333 174.59 67.7928 174.59 69.0023V71.6354H172.377V73.51H174.59V88.4797H176.756L176.768 73.51H180.288V71.6354H176.772V69.3601C176.772 68.3995 176.807 67.8083 176.881 67.5866C176.955 67.365 177.13 67.1705 177.406 66.9994C177.686 66.8282 178.036 66.7427 178.46 66.7427C179.028 66.7427 179.709 66.9138 180.506 67.2522V65.1325C179.526 64.8447 178.686 64.7008 177.982 64.7008C177.231 64.7008 176.585 64.8564 176.056 65.1714Z" fill="url(#paint5_linear_7:97)"/>
<path d="M184.274 64.7008C183.792 64.7008 183.376 64.8758 183.026 65.2259C182.676 65.5759 182.501 65.9998 182.501 66.4938C182.501 66.9799 182.676 67.3961 183.026 67.7461C183.376 68.0961 183.792 68.2711 184.274 68.2711C184.768 68.2711 185.188 68.0961 185.538 67.7461C185.888 67.3961 186.063 66.976 186.063 66.4938C186.063 65.9998 185.888 65.5759 185.538 65.2259C185.192 64.8758 184.768 64.7008 184.274 64.7008Z" fill="url(#paint6_linear_7:97)"/>
<path d="M185.368 71.6354H183.201V88.4797H185.368V71.6354Z" fill="url(#paint7_linear_7:97)"/>
<path d="M201.711 72.1643C200.734 71.5226 199.618 71.2036 198.358 71.2036C197.117 71.2036 195.974 71.4914 194.919 72.0632C193.865 72.6349 192.909 73.5022 192.041 74.6573V71.6392H189.875V88.4835H192.041V82.3074C192.041 80.0867 192.146 78.5621 192.352 77.7259C192.683 76.4463 193.368 75.3729 194.406 74.5056C195.445 73.6383 196.619 73.2066 197.93 73.2066C199.077 73.2066 200.003 73.4866 200.719 74.0506C201.43 74.6145 201.913 75.4507 202.166 76.5669C202.325 77.2164 202.407 78.5115 202.407 80.4523V88.4874H204.573V79.8183C204.573 77.5275 204.34 75.8396 203.877 74.7545C203.406 73.6655 202.687 72.8021 201.711 72.1643Z" fill="url(#paint8_linear_7:97)"/>
<path d="M223.858 74.7317C223.01 73.5533 222.03 72.6743 220.909 72.0832C219.789 71.4959 218.537 71.2003 217.156 71.2003C214.76 71.2003 212.714 72.0637 211.011 73.7866C209.307 75.5096 208.455 77.5864 208.455 80.0094C208.455 82.4869 209.299 84.5909 210.987 86.3178C212.675 88.0485 214.71 88.9119 217.094 88.9119C218.436 88.9119 219.673 88.6319 220.801 88.0757C221.932 87.5195 222.951 86.6872 223.858 85.5827V88.4763H225.993V71.632H223.858V74.7317ZM223.138 83.5914C222.566 84.6104 221.75 85.4193 220.688 86.0183C219.626 86.6172 218.502 86.9167 217.316 86.9167C216.141 86.9167 215.04 86.6133 214.013 86.0105C212.987 85.4077 212.17 84.5637 211.563 83.4825C210.956 82.4013 210.649 81.2656 210.649 80.0794C210.649 78.8854 210.952 77.7498 211.555 76.6763C212.158 75.6029 212.971 74.7706 213.99 74.1795C215.009 73.5883 216.125 73.2888 217.331 73.2888C219.206 73.2888 220.789 73.9422 222.072 75.2529C223.356 76.5636 223.998 78.1931 223.998 80.1378C223.998 81.4212 223.71 82.5724 223.138 83.5914Z" fill="url(#paint9_linear_7:97)"/>
<path d="M242.71 72.1643C241.733 71.5226 240.617 71.2036 239.357 71.2036C238.12 71.2036 236.973 71.4914 235.919 72.0632C234.864 72.6349 233.904 73.5022 233.04 74.6573V71.6392H230.874V88.4835H233.04V82.3074C233.04 80.0867 233.141 78.5621 233.351 77.7259C233.682 76.4463 234.367 75.3729 235.401 74.5056C236.44 73.6383 237.614 73.2066 238.925 73.2066C240.072 73.2066 240.998 73.4866 241.714 74.0506C242.426 74.6145 242.908 75.4507 243.161 76.5669C243.32 77.2164 243.402 78.5115 243.402 80.4523V88.4874H245.568V79.8183C245.568 77.5275 245.335 75.8396 244.872 74.7545C244.405 73.6655 243.682 72.8021 242.71 72.1643Z" fill="url(#paint10_linear_7:97)"/>
<path d="M258.762 73.2455C261.329 73.2455 263.356 74.2295 264.841 76.2013L266.56 75.1318C266.055 74.2839 265.44 73.5877 264.717 73.0433C263.993 72.4949 263.114 72.0515 262.076 71.7131C261.037 71.3709 259.964 71.2036 258.848 71.2036C257.074 71.2036 255.468 71.5965 254.032 72.3821C252.597 73.1677 251.469 74.2567 250.649 75.6568C249.828 77.057 249.42 78.5699 249.42 80.1995C249.42 82.6263 250.299 84.6838 252.053 86.3756C253.807 88.0674 256.016 88.9153 258.68 88.9153C260.415 88.9153 261.959 88.5808 263.317 87.9118C264.674 87.2429 265.755 86.3017 266.56 85.0921L264.841 83.9604C263.274 85.9322 261.255 86.9162 258.778 86.9162C257.428 86.9162 256.207 86.6167 255.122 86.0178C254.032 85.4188 253.177 84.5787 252.554 83.4975C251.932 82.4163 251.617 81.2612 251.617 80.0322C251.617 78.1459 252.294 76.5436 253.651 75.2212C255.009 73.9067 256.712 73.2455 258.762 73.2455Z" fill="url(#paint11_linear_7:97)"/>
<path d="M271.476 64.7008C270.994 64.7008 270.578 64.8758 270.228 65.2259C269.878 65.5759 269.703 65.9998 269.703 66.4938C269.703 66.9799 269.878 67.3961 270.228 67.7461C270.578 68.0961 270.994 68.2711 271.476 68.2711C271.97 68.2711 272.39 68.0961 272.74 67.7461C273.09 67.3961 273.265 66.976 273.265 66.4938C273.265 65.9998 273.09 65.5759 272.74 65.2259C272.39 64.8758 271.97 64.7008 271.476 64.7008Z" fill="url(#paint12_linear_7:97)"/>
<path d="M272.565 71.6354H270.399V88.4797H272.565V71.6354Z" fill="url(#paint13_linear_7:97)"/>
<path d="M291.78 74.4706C290.064 72.2926 287.77 71.2036 284.899 71.2036C282.11 71.2036 279.882 72.2654 278.221 74.3928C276.91 76.0652 276.253 77.9709 276.253 80.1061C276.253 82.3774 277.027 84.4115 278.579 86.2122C280.127 88.0129 282.278 88.9153 285.024 88.9153C286.264 88.9153 287.373 88.7286 288.357 88.3513C289.337 87.9741 290.22 87.4257 291.006 86.7023C291.791 85.9789 292.484 85.0299 293.083 83.8553L291.255 82.8947C290.593 83.9954 289.979 84.7927 289.411 85.2866C288.843 85.7805 288.155 86.1772 287.342 86.4728C286.529 86.7723 285.696 86.9201 284.837 86.9201C283.059 86.9201 281.566 86.2939 280.356 85.0416C279.147 83.7892 278.52 82.1869 278.482 80.2306H293.639C293.619 77.9281 292.997 76.0069 291.78 74.4706ZM278.699 78.356C279.143 76.808 279.8 75.6452 280.667 74.8712C281.858 73.8094 283.277 73.2766 284.93 73.2766C285.934 73.2766 286.887 73.4866 287.797 73.9106C288.707 74.3345 289.438 74.8906 289.99 75.5829C290.543 76.2752 290.967 77.197 291.255 78.3521H278.699V78.356Z" fill="url(#paint14_linear_7:97)"/>
<path d="M301.165 71.9237C300.434 72.4021 299.734 73.1294 299.077 74.0978V71.6359H296.864V88.4802H299.077V82.7825C299.077 79.8616 299.209 77.9209 299.481 76.9603C299.831 75.7118 300.345 74.7901 301.014 74.195C301.683 73.6 302.383 73.3044 303.102 73.3044C303.414 73.3044 303.795 73.4016 304.25 73.6L305.382 71.772C304.701 71.3909 304.059 71.2003 303.46 71.2003C302.663 71.2042 301.897 71.4414 301.165 71.9237Z" fill="url(#paint15_linear_7:97)"/>
<path d="M321.865 71.6359V74.7317C321.017 73.5533 320.037 72.6743 318.916 72.0832C317.796 71.4959 316.544 71.2003 315.163 71.2003C312.767 71.2003 310.721 72.0637 309.018 73.7866C307.314 75.5096 306.462 77.5864 306.462 80.0094C306.462 82.4869 307.306 84.5909 308.994 86.3178C310.682 88.0485 312.717 88.9119 315.101 88.9119C316.443 88.9119 317.68 88.6319 318.808 88.0757C319.939 87.5195 320.958 86.6872 321.865 85.5827V88.4763H324V71.632H321.865V71.6359ZM321.145 83.5914C320.573 84.6104 319.757 85.4193 318.695 86.0183C317.633 86.6172 316.509 86.9167 315.323 86.9167C314.148 86.9167 313.047 86.6133 312.02 86.0105C310.994 85.4077 310.177 84.5637 309.57 83.4825C308.963 82.4013 308.656 81.2656 308.656 80.0794C308.656 78.8854 308.959 77.7498 309.562 76.6763C310.165 75.6029 310.978 74.7706 311.997 74.1795C313.016 73.5883 314.132 73.2888 315.338 73.2888C317.213 73.2888 318.796 73.9422 320.079 75.2529C321.363 76.5636 322.005 78.1931 322.005 80.1378C322.005 81.4212 321.717 82.5724 321.145 83.5914Z" fill="url(#paint16_linear_7:97)"/>
<path d="M43.662 16L16 88.4877H30.3094L57.9714 16H43.662Z" fill="url(#paint17_linear_7:97)"/>
<path d="M71.4797 16L43.8177 88.4877H58.1233L85.7852 16H71.4797Z" fill="url(#paint18_linear_7:97)"/>
<defs>
<linearGradient id="paint0_linear_7:97" x1="270.83" y1="-18.5031" x2="26.4672" y2="117.166" gradientUnits="userSpaceOnUse">
<stop offset="0.4525" stop-color="#002046"/>
<stop offset="1" stop-color="#007BBB"/>
</linearGradient>
<linearGradient id="paint1_linear_7:97" x1="277.429" y1="-6.61751" x2="33.0664" y2="129.051" gradientUnits="userSpaceOnUse">
<stop offset="0.4525" stop-color="#002046"/>
<stop offset="1" stop-color="#007BBB"/>
</linearGradient>
<linearGradient id="paint2_linear_7:97" x1="279.569" y1="-2.76217" x2="35.2061" y2="132.906" gradientUnits="userSpaceOnUse">
<stop offset="0.4525" stop-color="#002046"/>
<stop offset="1" stop-color="#007BBB"/>
</linearGradient>
<linearGradient id="paint3_linear_7:97" x1="282.769" y1="3.00159" x2="38.4058" y2="138.671" gradientUnits="userSpaceOnUse">
<stop offset="0.4525" stop-color="#002046"/>
<stop offset="1" stop-color="#007BBB"/>
</linearGradient>
<linearGradient id="paint4_linear_7:97" x1="286.784" y1="10.2329" x2="42.421" y2="145.902" gradientUnits="userSpaceOnUse">
<stop offset="0.4525" stop-color="#002046"/>
<stop offset="1" stop-color="#007BBB"/>
</linearGradient>
<linearGradient id="paint5_linear_7:97" x1="289.042" y1="14.299" x2="44.679" y2="149.968" gradientUnits="userSpaceOnUse">
<stop offset="0.4525" stop-color="#002046"/>
<stop offset="1" stop-color="#007BBB"/>
</linearGradient>
<linearGradient id="paint6_linear_7:97" x1="286.508" y1="9.73929" x2="42.1479" y2="145.403" gradientUnits="userSpaceOnUse">
<stop offset="0.4525" stop-color="#002046"/>
<stop offset="1" stop-color="#007BBB"/>
</linearGradient>
<linearGradient id="paint7_linear_7:97" x1="292.27" y1="20.1126" x2="47.9068" y2="155.781" gradientUnits="userSpaceOnUse">
<stop offset="0.4525" stop-color="#002046"/>
<stop offset="1" stop-color="#007BBB"/>
</linearGradient>
<linearGradient id="paint8_linear_7:97" x1="295.317" y1="25.6018" x2="50.9537" y2="161.271" gradientUnits="userSpaceOnUse">
<stop offset="0.4525" stop-color="#002046"/>
<stop offset="1" stop-color="#007BBB"/>
</linearGradient>
<linearGradient id="paint9_linear_7:97" x1="300.696" y1="35.2906" x2="56.333" y2="170.96" gradientUnits="userSpaceOnUse">
<stop offset="0.4525" stop-color="#002046"/>
<stop offset="1" stop-color="#007BBB"/>
</linearGradient>
<linearGradient id="paint10_linear_7:97" x1="304.976" y1="42.9992" x2="60.6126" y2="178.668" gradientUnits="userSpaceOnUse">
<stop offset="0.4525" stop-color="#002046"/>
<stop offset="1" stop-color="#007BBB"/>
</linearGradient>
<linearGradient id="paint11_linear_7:97" x1="309.835" y1="51.7511" x2="65.4722" y2="187.42" gradientUnits="userSpaceOnUse">
<stop offset="0.4525" stop-color="#002046"/>
<stop offset="1" stop-color="#007BBB"/>
</linearGradient>
<linearGradient id="paint12_linear_7:97" x1="307.054" y1="46.7416" x2="62.6906" y2="182.411" gradientUnits="userSpaceOnUse">
<stop offset="0.4525" stop-color="#002046"/>
<stop offset="1" stop-color="#007BBB"/>
</linearGradient>
<linearGradient id="paint13_linear_7:97" x1="312.812" y1="57.115" x2="68.4513" y2="192.78" gradientUnits="userSpaceOnUse">
<stop offset="0.4525" stop-color="#002046"/>
<stop offset="1" stop-color="#007BBB"/>
</linearGradient>
<linearGradient id="paint14_linear_7:97" x1="316.003" y1="62.8611" x2="71.6405" y2="198.529" gradientUnits="userSpaceOnUse">
<stop offset="0.4525" stop-color="#002046"/>
<stop offset="1" stop-color="#007BBB"/>
</linearGradient>
<linearGradient id="paint15_linear_7:97" x1="319.053" y1="68.3534" x2="74.6899" y2="204.022" gradientUnits="userSpaceOnUse">
<stop offset="0.4525" stop-color="#002046"/>
<stop offset="1" stop-color="#007BBB"/>
</linearGradient>
<linearGradient id="paint16_linear_7:97" x1="323.786" y1="76.8788" x2="79.4224" y2="212.548" gradientUnits="userSpaceOnUse">
<stop offset="0.4525" stop-color="#002046"/>
<stop offset="1" stop-color="#007BBB"/>
</linearGradient>
<linearGradient id="paint17_linear_7:97" x1="245.764" y1="-63.6526" x2="1.40033" y2="72.0163" gradientUnits="userSpaceOnUse">
<stop offset="0.4525" stop-color="#002046"/>
<stop offset="1" stop-color="#007BBB"/>
</linearGradient>
<linearGradient id="paint18_linear_7:97" x1="252.317" y1="-51.8497" x2="7.95346" y2="83.8192" gradientUnits="userSpaceOnUse">
<stop offset="0.4525" stop-color="#002046"/>
<stop offset="1" stop-color="#007BBB"/>
</linearGradient>
</defs>
</svg>
